<svg xmlns="http://www.w3.org/2000/svg" width="740" height="250" viewBox="0 0 740 250" role="img"><rect x="1" y="1" width="738" height="248" rx="12" fill="#0B0B12" stroke="#1E4D3A" stroke-width="1.5"/><text x="24" y="36" font-family="-apple-system,BlinkMacSystemFont,'Segoe UI',Helvetica,Arial,sans-serif" font-size="18" font-weight="700" fill="#39FF8F">Contribution Activity</text><text x="24" y="56" font-family="-apple-system,BlinkMacSystemFont,'Segoe UI',Helvetica,Arial,sans-serif" font-size="12" fill="#8B949E">last 26 weeks</text><line x1="52" y1="208.0" x2="716" y2="208.0" stroke="#1C2330" stroke-dasharray="4 4"/><text x="44" y="211.0" text-anchor="end" font-family="-apple-system,BlinkMacSystemFont,'Segoe UI',Helvetica,Arial,sans-serif" font-size="10" fill="#8B949E">0</text><line x1="52" y1="146.0" x2="716" y2="146.0" stroke="#1C2330" stroke-dasharray="4 4"/><text x="44" y="149.0" text-anchor="end" font-family="-apple-system,BlinkMacSystemFont,'Segoe UI',Helvetica,Arial,sans-serif" font-size="10" fill="#8B949E">85</text><line x1="52" y1="84.0" x2="716" y2="84.0" stroke="#1C2330" stroke-dasharray="4 4"/><text x="44" y="87.0" text-anchor="end" font-family="-apple-system,BlinkMacSystemFont,'Segoe UI',Helvetica,Arial,sans-serif" font-size="10" fill="#8B949E">170</text><defs><linearGradient id="ag" x1="0" y1="0" x2="0" y2="1"><stop offset="0" stop-color="#39FF8F" stop-opacity="0.45"/><stop offset="1" stop-color="#39FF8F" stop-opacity="0.02"/></linearGradient></defs><path d="M52.0,208.0 L78.6,208.0 L105.1,208.0 L131.7,208.0 L158.2,208.0 L184.8,208.0 L211.4,208.0 L237.9,208.0 L264.5,208.0 L291.0,208.0 L317.6,208.0 L344.2,208.0 L370.7,208.0 L397.3,208.0 L423.8,208.0 L450.4,208.0 L477.0,208.0 L503.5,208.0 L530.1,190.5 L556.6,202.2 L583.2,196.3 L609.8,190.5 L636.3,197.8 L662.9,189.0 L689.4,206.5 L716.0,84.0 L716.0,208.0 L52.0,208.0 Z" fill="url(#ag)"/><path d="M52.0,208.0 L78.6,208.0 L105.1,208.0 L131.7,208.0 L158.2,208.0 L184.8,208.0 L211.4,208.0 L237.9,208.0 L264.5,208.0 L291.0,208.0 L317.6,208.0 L344.2,208.0 L370.7,208.0 L397.3,208.0 L423.8,208.0 L450.4,208.0 L477.0,208.0 L503.5,208.0 L530.1,190.5 L556.6,202.2 L583.2,196.3 L609.8,190.5 L636.3,197.8 L662.9,189.0 L689.4,206.5 L716.0,84.0" fill="none" stroke="#34E0FF" stroke-width="2.5" stroke-linejoin="round"/><text x="52.0" y="226" text-anchor="middle" font-family="-apple-system,BlinkMacSystemFont,'Segoe UI',Helvetica,Arial,sans-serif" font-size="10" fill="#8B949E">Mar</text><text x="78.6" y="226" text-anchor="middle" font-family="-apple-system,BlinkMacSystemFont,'Segoe UI',Helvetica,Arial,sans-serif" font-size="10" fill="#8B949E">Apr</text><text x="184.8" y="226" text-anchor="middle" font-family="-apple-system,BlinkMacSystemFont,'Segoe UI',Helvetica,Arial,sans-serif" font-size="10" fill="#8B949E">May</text><text x="317.6" y="226" text-anchor="middle" font-family="-apple-system,BlinkMacSystemFont,'Segoe UI',Helvetica,Arial,sans-serif" font-size="10" fill="#8B949E">Jun</text><text x="423.8" y="226" text-anchor="middle" font-family="-apple-system,BlinkMacSystemFont,'Segoe UI',Helvetica,Arial,sans-serif" font-size="10" fill="#8B949E">Jul</text><text x="556.6" y="226" text-anchor="middle" font-family="-apple-system,BlinkMacSystemFont,'Segoe UI',Helvetica,Arial,sans-serif" font-size="10" fill="#8B949E">Aug</text><text x="662.9" y="226" text-anchor="middle" font-family="-apple-system,BlinkMacSystemFont,'Segoe UI',Helvetica,Arial,sans-serif" font-size="10" fill="#8B949E">Sep</text></svg>